<svg width="15" height="9" viewBox="0 0 15 9" fill="none" xmlns="http://www.w3.org/2000/svg">
<path d="M0.803566 5.30943L11.4107 5.30943L9.08035 7.63979C8.75892 7.96122 8.75892 8.44336 9.08035 8.76479C9.40178 9.08622 9.88392 9.08622 10.2054 8.76479L13.9018 5.06836C14.2232 4.74693 14.2232 4.26479 13.9018 3.94336L10.2054 0.246931C9.88392 -0.0744985 9.40178 -0.0744986 9.08035 0.246931C8.75892 0.568359 8.75892 1.0505 9.08035 1.37193L11.4107 3.70229L0.803566 3.70229C0.401781 3.70229 -5.28649e-06 4.02372 -5.32864e-06 4.50586C-5.37079e-06 4.988 0.40178 5.30943 0.803566 5.30943Z" fill="#4089ED"/>
</svg>
