<svg width="159" height="41" viewBox="0 0 159 41" fill="none" xmlns="http://www.w3.org/2000/svg">
<path d="M58.568 15.456H53V12.912H67.28V15.456H61.688V30H58.568V15.456Z" fill="#233348"/>
<path d="M73.8329 17.592C74.2969 17.592 74.6969 17.656 75.0329 17.784L75.0089 20.52C74.4969 20.312 73.9689 20.208 73.4249 20.208C72.4009 20.208 71.6169 20.504 71.0729 21.096C70.5449 21.688 70.2809 22.472 70.2809 23.448V30H67.3049V21.312C67.3049 20.032 67.2409 18.888 67.1129 17.88H69.9209L70.1609 20.016C70.4649 19.232 70.9449 18.632 71.6009 18.216C72.2569 17.8 73.0009 17.592 73.8329 17.592Z" fill="#233348"/>
<path d="M88.061 17.88V30H85.109V28.056C84.741 28.728 84.213 29.256 83.525 29.64C82.837 30.008 82.053 30.192 81.173 30.192C80.117 30.192 79.181 29.936 78.365 29.424C77.549 28.912 76.917 28.184 76.469 27.24C76.021 26.296 75.797 25.2 75.797 23.952C75.797 22.704 76.021 21.6 76.469 20.64C76.933 19.664 77.573 18.912 78.389 18.384C79.205 17.84 80.133 17.568 81.173 17.568C82.053 17.568 82.837 17.76 83.525 18.144C84.213 18.512 84.741 19.032 85.109 19.704V17.88H88.061ZM81.989 27.84C82.981 27.84 83.749 27.496 84.293 26.808C84.837 26.12 85.109 25.152 85.109 23.904C85.109 22.624 84.837 21.64 84.293 20.952C83.749 20.264 82.973 19.92 81.965 19.92C80.973 19.92 80.197 20.28 79.637 21C79.093 21.704 78.821 22.688 78.821 23.952C78.821 25.2 79.093 26.16 79.637 26.832C80.197 27.504 80.981 27.84 81.989 27.84Z" fill="#233348"/>
<path d="M97.0644 14.712C95.7684 14.712 95.1204 15.424 95.1204 16.848V17.88H97.8324V20.136H95.1204V30H92.1204V20.136H89.8164V17.88H92.1204V16.704C92.1204 15.264 92.4804 14.16 93.2004 13.392C93.9364 12.608 94.9844 12.216 96.3444 12.216C97.0964 12.216 97.7284 12.312 98.2404 12.504V14.88C97.7924 14.768 97.4004 14.712 97.0644 14.712Z" fill="#233348"/>
<path d="M111.616 17.88V30H108.664V28.056C108.296 28.728 107.768 29.256 107.08 29.64C106.392 30.008 105.608 30.192 104.728 30.192C103.672 30.192 102.736 29.936 101.92 29.424C101.104 28.912 100.472 28.184 100.024 27.24C99.5757 26.296 99.3517 25.2 99.3517 23.952C99.3517 22.704 99.5757 21.6 100.024 20.64C100.488 19.664 101.128 18.912 101.944 18.384C102.76 17.84 103.688 17.568 104.728 17.568C105.608 17.568 106.392 17.76 107.08 18.144C107.768 18.512 108.296 19.032 108.664 19.704V17.88H111.616ZM105.544 27.84C106.536 27.84 107.304 27.496 107.848 26.808C108.392 26.12 108.664 25.152 108.664 23.904C108.664 22.624 108.392 21.64 107.848 20.952C107.304 20.264 106.528 19.92 105.52 19.92C104.528 19.92 103.752 20.28 103.192 21C102.648 21.704 102.376 22.688 102.376 23.952C102.376 25.2 102.648 26.16 103.192 26.832C103.752 27.504 104.536 27.84 105.544 27.84Z" fill="#233348"/>
<path d="M114.883 12.336H117.859V30H114.883V12.336Z" fill="#233348"/>
<path d="M132.853 17.88V29.616C132.853 31.504 132.333 32.936 131.293 33.912C130.253 34.888 128.725 35.376 126.709 35.376C124.837 35.376 123.189 34.984 121.765 34.2L122.245 31.92C123.717 32.688 125.181 33.072 126.637 33.072C128.797 33.072 129.877 32 129.877 29.856V27.456C129.509 28.112 128.973 28.648 128.269 29.064C127.565 29.464 126.773 29.664 125.893 29.664C124.837 29.664 123.893 29.416 123.061 28.92C122.245 28.408 121.605 27.696 121.141 26.784C120.693 25.856 120.469 24.8 120.469 23.616C120.469 22.432 120.693 21.384 121.141 20.472C121.605 19.544 122.245 18.832 123.061 18.336C123.893 17.824 124.837 17.568 125.893 17.568C126.789 17.568 127.581 17.76 128.269 18.144C128.973 18.512 129.509 19.032 129.877 19.704V17.88H132.853ZM126.685 27.312C127.677 27.312 128.453 26.984 129.013 26.328C129.589 25.672 129.877 24.768 129.877 23.616C129.877 22.464 129.597 21.56 129.037 20.904C128.477 20.248 127.693 19.92 126.685 19.92C125.693 19.92 124.909 20.248 124.333 20.904C123.773 21.56 123.493 22.464 123.493 23.616C123.493 24.768 123.773 25.672 124.333 26.328C124.909 26.984 125.693 27.312 126.685 27.312Z" fill="#233348"/>
<path d="M147.686 17.88V30H144.734V28.056C144.366 28.728 143.838 29.256 143.15 29.64C142.462 30.008 141.678 30.192 140.798 30.192C139.742 30.192 138.806 29.936 137.99 29.424C137.174 28.912 136.542 28.184 136.094 27.24C135.646 26.296 135.422 25.2 135.422 23.952C135.422 22.704 135.646 21.6 136.094 20.64C136.558 19.664 137.198 18.912 138.014 18.384C138.83 17.84 139.758 17.568 140.798 17.568C141.678 17.568 142.462 17.76 143.15 18.144C143.838 18.512 144.366 19.032 144.734 19.704V17.88H147.686ZM141.614 27.84C142.606 27.84 143.374 27.496 143.918 26.808C144.462 26.12 144.734 25.152 144.734 23.904C144.734 22.624 144.462 21.64 143.918 20.952C143.374 20.264 142.598 19.92 141.59 19.92C140.598 19.92 139.822 20.28 139.262 21C138.718 21.704 138.446 22.688 138.446 23.952C138.446 25.2 138.718 26.16 139.262 26.832C139.822 27.504 140.606 27.84 141.614 27.84Z" fill="#233348"/>
<path d="M157.481 17.592C157.945 17.592 158.345 17.656 158.681 17.784L158.657 20.52C158.145 20.312 157.617 20.208 157.073 20.208C156.049 20.208 155.265 20.504 154.721 21.096C154.193 21.688 153.929 22.472 153.929 23.448V30H150.953V21.312C150.953 20.032 150.889 18.888 150.761 17.88H153.569L153.809 20.016C154.113 19.232 154.593 18.632 155.249 18.216C155.905 17.8 156.649 17.592 157.481 17.592Z" fill="#233348"/>
<circle cx="20.5" cy="20.5" r="20.5" fill="#458FF6"/>
<path d="M19.344 15.244H13.312V12.488H28.782V15.244H22.724V31H19.344V15.244Z" fill="white"/>
</svg>
