<svg width="106" height="24" viewBox="0 0 106 24" fill="none" xmlns="http://www.w3.org/2000/svg">
<path d="M5.568 3.456H0V0.912004H14.28V3.456H8.688V18H5.568V3.456Z" fill="#233348"/>
<path d="M20.8329 5.592C21.2969 5.592 21.6969 5.656 22.0329 5.78401L22.0089 8.52C21.4969 8.312 20.9689 8.208 20.4249 8.208C19.4009 8.208 18.6169 8.504 18.0729 9.096C17.5449 9.688 17.2809 10.472 17.2809 11.448V18H14.3049V9.312C14.3049 8.032 14.2409 6.888 14.1129 5.88H16.9209L17.1609 8.016C17.4649 7.232 17.9449 6.632 18.6009 6.216C19.2569 5.8 20.0009 5.592 20.8329 5.592Z" fill="#233348"/>
<path d="M35.061 5.88V18H32.109V16.056C31.741 16.728 31.213 17.256 30.525 17.64C29.837 18.008 29.053 18.192 28.173 18.192C27.117 18.192 26.181 17.936 25.365 17.424C24.549 16.912 23.917 16.184 23.469 15.24C23.021 14.296 22.797 13.2 22.797 11.952C22.797 10.704 23.021 9.6 23.469 8.64C23.933 7.664 24.573 6.912 25.389 6.384C26.205 5.84 27.133 5.568 28.173 5.568C29.053 5.568 29.837 5.76 30.525 6.144C31.213 6.512 31.741 7.032 32.109 7.704V5.88H35.061ZM28.989 15.84C29.981 15.84 30.749 15.496 31.293 14.808C31.837 14.12 32.109 13.152 32.109 11.904C32.109 10.624 31.837 9.64 31.293 8.952C30.749 8.264 29.973 7.92 28.965 7.92C27.973 7.92 27.197 8.28 26.637 9C26.093 9.704 25.821 10.688 25.821 11.952C25.821 13.2 26.093 14.16 26.637 14.832C27.197 15.504 27.981 15.84 28.989 15.84Z" fill="#233348"/>
<path d="M44.0644 2.712C42.7684 2.712 42.1204 3.424 42.1204 4.848V5.88H44.8324V8.136H42.1204V18H39.1204V8.136H36.8164V5.88H39.1204V4.704C39.1204 3.264 39.4804 2.16 40.2004 1.392C40.9364 0.608004 41.9844 0.216003 43.3444 0.216003C44.0964 0.216003 44.7284 0.312004 45.2404 0.504004V2.88C44.7924 2.768 44.4004 2.712 44.0644 2.712Z" fill="#233348"/>
<path d="M58.6157 5.88V18H55.6637V16.056C55.2957 16.728 54.7677 17.256 54.0797 17.64C53.3917 18.008 52.6077 18.192 51.7277 18.192C50.6717 18.192 49.7357 17.936 48.9197 17.424C48.1037 16.912 47.4717 16.184 47.0237 15.24C46.5757 14.296 46.3517 13.2 46.3517 11.952C46.3517 10.704 46.5757 9.6 47.0237 8.64C47.4877 7.664 48.1277 6.912 48.9437 6.384C49.7597 5.84 50.6877 5.568 51.7277 5.568C52.6077 5.568 53.3917 5.76 54.0797 6.144C54.7677 6.512 55.2957 7.032 55.6637 7.704V5.88H58.6157ZM52.5437 15.84C53.5357 15.84 54.3037 15.496 54.8477 14.808C55.3917 14.12 55.6637 13.152 55.6637 11.904C55.6637 10.624 55.3917 9.64 54.8477 8.952C54.3037 8.264 53.5277 7.92 52.5197 7.92C51.5277 7.92 50.7517 8.28 50.1917 9C49.6477 9.704 49.3757 10.688 49.3757 11.952C49.3757 13.2 49.6477 14.16 50.1917 14.832C50.7517 15.504 51.5357 15.84 52.5437 15.84Z" fill="#233348"/>
<path d="M61.8831 0.336003H64.8591V18H61.8831V0.336003Z" fill="#233348"/>
<path d="M79.8529 5.88V17.616C79.8529 19.504 79.3329 20.936 78.2929 21.912C77.2529 22.888 75.7249 23.376 73.7089 23.376C71.8369 23.376 70.1889 22.984 68.7649 22.2L69.2449 19.92C70.7169 20.688 72.1809 21.072 73.6369 21.072C75.7969 21.072 76.8769 20 76.8769 17.856V15.456C76.5089 16.112 75.9729 16.648 75.2689 17.064C74.5649 17.464 73.7729 17.664 72.8929 17.664C71.8369 17.664 70.8929 17.416 70.0609 16.92C69.2449 16.408 68.6049 15.696 68.1409 14.784C67.6929 13.856 67.4689 12.8 67.4689 11.616C67.4689 10.432 67.6929 9.384 68.1409 8.472C68.6049 7.544 69.2449 6.832 70.0609 6.336C70.8929 5.824 71.8369 5.568 72.8929 5.568C73.7889 5.568 74.5809 5.76 75.2689 6.144C75.9729 6.512 76.5089 7.032 76.8769 7.704V5.88H79.8529ZM73.6849 15.312C74.6769 15.312 75.4529 14.984 76.0129 14.328C76.5889 13.672 76.8769 12.768 76.8769 11.616C76.8769 10.464 76.5969 9.56 76.0369 8.904C75.4769 8.248 74.6929 7.92 73.6849 7.92C72.6929 7.92 71.9089 8.248 71.3329 8.904C70.7729 9.56 70.4929 10.464 70.4929 11.616C70.4929 12.768 70.7729 13.672 71.3329 14.328C71.9089 14.984 72.6929 15.312 73.6849 15.312Z" fill="#233348"/>
<path d="M94.686 5.88V18H91.734V16.056C91.366 16.728 90.838 17.256 90.15 17.64C89.462 18.008 88.678 18.192 87.798 18.192C86.742 18.192 85.806 17.936 84.99 17.424C84.174 16.912 83.542 16.184 83.094 15.24C82.646 14.296 82.422 13.2 82.422 11.952C82.422 10.704 82.646 9.6 83.094 8.64C83.558 7.664 84.198 6.912 85.014 6.384C85.83 5.84 86.758 5.568 87.798 5.568C88.678 5.568 89.462 5.76 90.15 6.144C90.838 6.512 91.366 7.032 91.734 7.704V5.88H94.686ZM88.614 15.84C89.606 15.84 90.374 15.496 90.918 14.808C91.462 14.12 91.734 13.152 91.734 11.904C91.734 10.624 91.462 9.64 90.918 8.952C90.374 8.264 89.598 7.92 88.59 7.92C87.598 7.92 86.822 8.28 86.262 9C85.718 9.704 85.446 10.688 85.446 11.952C85.446 13.2 85.718 14.16 86.262 14.832C86.822 15.504 87.606 15.84 88.614 15.84Z" fill="#233348"/>
<path d="M104.481 5.592C104.945 5.592 105.345 5.656 105.681 5.78401L105.657 8.52C105.145 8.312 104.617 8.208 104.073 8.208C103.049 8.208 102.265 8.504 101.721 9.096C101.193 9.688 100.929 10.472 100.929 11.448V18H97.9534V9.312C97.9534 8.032 97.8894 6.888 97.7614 5.88H100.569L100.809 8.016C101.113 7.232 101.593 6.632 102.249 6.216C102.905 5.8 103.649 5.592 104.481 5.592Z" fill="#233348"/>
</svg>
